<?xml version="1.0" encoding="utf-8"?>
<!-- Generator: Adobe Illustrator 16.0.0, SVG Export Plug-In . SVG Version: 6.00 Build 0)  -->
<!DOCTYPE svg PUBLIC "-//W3C//DTD SVG 1.1//EN" "http://www.w3.org/Graphics/SVG/1.1/DTD/svg11.dtd">
<svg version="1.1" xmlns="http://www.w3.org/2000/svg" xmlns:xlink="http://www.w3.org/1999/xlink" x="0px" y="0px" width="900px"
	 height="500px" viewBox="0 0 900 500" enable-background="new 0 0 900 500" xml:space="preserve">
<g id="Layer_2" display="none">
	<rect display="inline" stroke="#231F20" stroke-miterlimit="10" width="900" height="500"/>
</g>
<g id="Layer_1" display="none">
	<g display="inline">
		<g>
			<g>
				<path fill="#FFFFFF" d="M173.307,309.226c-3.008,0-5.814-0.664-8.115-1.919c-6.322-3.45-6.904-10.322-6.62-14.402
					c1.488,0.603,3.329,1.123,5.25,1.123c3.07,0,5.62-1.33,7.374-3.845c15.078-21.623,38.852-72.743,56.14-111.82l3.117-7.044
					l-6.659,3.872c-10.965,6.375-29.459,18.913-30.13,31.263c-0.04,0.723-0.001,1.4,0.098,2.034
					c-1.752-0.897-3.513-2.183-4.777-4.017c-2.107-3.056-2.479-7.173-1.106-12.236c3.812-14.048,25.863-32.469,51.294-42.849
					l0.95-0.388l0.404-0.943c3.014-7.04,5.285-12.428,6.514-15.357c3.053,1.64,8.367,4.939,10.759,9.104l0.881,1.534l1.74-0.32
					c4.563-0.84,8.94-1.266,13.01-1.266c11.58,0,20.539,3.346,26.627,9.944c19.32,20.938-0.239,44.396-1.082,45.384l-1.756,2.061
					l2.192,1.589c0.994,0.724,24.32,18.148,15.74,49.505c-6.314,23.077-28.942,48.771-58.441,50.936
					c-1.945,0.143-3.847,0.215-5.65,0.215c0,0-0.001,0-0.001,0c-16.285,0-26.708-5.922-30.142-17.125
					c-4.735-15.449,4.518-35.747,12.829-41.37c4.33-2.93,8.306-4.415,11.816-4.415c3.522,0,5.888,1.536,7.252,2.824
					c0.595,0.562,0.674,1.04,0.676,1.393c0.003,0.57-0.21,1.193-0.514,1.785c-1.289-1.202-3.125-2.255-5.612-2.616
					c-0.871-0.126-1.693-0.188-2.514-0.188c-5.184,0-12.133,2.514-15.804,14.49c-1.447,4.721-0.529,9.639,2.584,13.849
					c4.423,5.981,12.424,9.552,21.404,9.552c0.001,0,0.003,0,0.005,0c12.597-0.002,25.295-6.875,35.755-19.355
					c20.849-24.875,4.262-51.366,4.092-51.63l-0.963-1.5l-1.732,0.422c-0.189,0.046-19.032,4.619-26.699,4.619
					c-0.308,0-0.596-0.008-0.863-0.025c-3.934-0.25-7.186-2.535-8.487-5.963c-1.508-3.972-0.156-8.484,3.711-12.38
					c1.027-1.035,4.617-1.708,7.239-2.199c2.329-0.436,4.528-0.848,6.122-1.571c3.552-1.609,8.296-5.651,12.087-10.296
					c3.258-3.992,6.925-9.77,5.896-14.63c-0.836-3.953-3.794-8.666-13.137-8.666c-5.115,0-11.875,1.436-20.091,4.269l-1.204,0.415
					l-0.372,1.218c-13.358,43.676-32.577,86.741-60.48,135.527C190.068,304.534,181.596,309.226,173.307,309.226z"/>
			</g>
			<g>
				<path fill="#FFFFFF" d="M209.275,396.264c-6.163-2.667-27.667-12.869-31.812-26.91c-1.578-5.346-0.411-10.77,3.469-16.121
					c19.43-26.8,63.751-39.827,135.497-39.827c37.463,0,77.635,3.401,113.078,6.402c6.972,0.59,13.794,1.168,20.423,1.706
					c12.924,1.049,128.325,10.247,199.756,10.247c27.071,0,44.74-1.343,52.516-3.989c21.082-7.177,46.816-21.391,49.696-48.353
					c0.991-9.278-0.477-20.821-6.041-24.241c-1.267-0.777-2.613-1.173-4.004-1.173c-5.14,0-10.269,5.267-16.879,13.765
					c-21.417,27.531-34.613,30.716-42.677,30.716c-2.828,0-5.656-0.493-8.406-1.466c-6.742-2.385-10.953-6.366-12.516-11.835
					c-4.739-16.587,15.3-41.923,15.503-42.177l1.072-1.342l-1.475-0.882c-0.05-0.03-5.066-3.033-8.115-5.208l-1.282-0.916
					l-0.852,1.326c-3.663,5.706-12.595,19.484-16.393,24.174c-12.423,15.343-36.762,38.167-52.896,38.167
					c-0.638,0-1.265-0.036-1.865-0.107c-9.966-1.191-16.799-4.981-20.308-11.267c-7.041-12.608,0.704-32.354,4.361-40.259
					l1.062-2.296l-2.524,0.17c-0.867,0.058-1.879,0.11-2.985,0.138l-1.083,0.027l-0.314,1.037
					c-1.088,3.584-2.583,7.346-4.443,11.179c-8.088,16.663-32.909,41.38-50.627,41.38c-2.874,0-5.473-0.667-7.724-1.981
					c-7.83-4.573-11.461-11.741-11.102-21.913l0.137-3.862l-2.707,2.759c-5.845,5.96-26.086,25.405-41.121,25.405
					c-1.817,0-3.514-0.292-5.041-0.868c-9.368-3.533-14.785-8.789-16.1-15.621c-3.604-18.732,23.618-43.885,23.894-44.137
					l1.378-1.261l-1.528-1.074c-0.042-0.029-4.254-2.993-8.421-6.324l-1.386-1.107l-0.862,1.551
					c-17.384,31.28-43.251,68.01-58.936,68.58c-0.487,0.018-0.959,0.026-1.425,0.026c-18.271,0-19.901-13.227-19.961-13.79
					l-0.403-3.756l-2.284,3.011c-0.105,0.139-10.706,13.895-25.042,13.895c-2.261,0-4.532-0.345-6.75-1.023
					c-7.212-2.208-12.046-7.296-14.368-15.123c-5.058-17.052,3.23-42.271,10.931-51.469c14.777-17.651,28.496-26.601,40.776-26.601
					c13.857,0,21.079,11.89,21.15,12.01l1.252,2.109l12.68-20.138c4.422,4.111,10.461,10.514,11.086,13.439
					c1.86,8.703-5.546,25.375-12.081,40.084c-7.489,16.859-12.901,29.041-7.304,32.432c0.628,0.38,1.345,0.573,2.131,0.573
					c0,0,0.001,0,0.002,0c10.688-0.004,38.915-42.793,47.312-55.908l0.691-1.081l-0.961-0.851c-2.422-2.145-3.47-3.388-3.922-4.053
					c-7.635-11.23-0.978-26.727,3.67-34.964c2.936-5.204,6.394-7.842,10.278-7.842c3.02,0,5.836,1.548,7.691,2.713
					c5.553,3.486,1.479,21.846-2.392,32.601l-0.486,1.351l1.328,0.545c0.298,0.122,7.338,2.988,11.286,2.988
					c0.742,0,1.357-0.094,1.879-0.289c2.253-0.839,4.336-3.401,6.542-6.114c2.083-2.562,4.675-5.75,6.462-5.75
					c0.043,0,0.085,0.002,0.127,0.006c0.88,0.081,1.724,0.655,2.509,1.707c2.599,3.484,3.584,10.963,2.955,14.113
					c-1.262,6.315-8.086,16.08-14.687,25.523c-10.23,14.639-19.066,27.283-13.196,32.981c1.053,1.022,2.435,1.54,4.106,1.54
					c8.662-0.001,24.481-14.724,30.88-21.054l0.283-0.279l0.106-0.383c6.962-24.89,29.327-56.38,44.128-77.217
					c4.744-6.68,8.842-12.449,11.644-16.852c5.292-8.315,7.777-14.065,8.887-17.155c2.686,3.448,7.419,11.562,4.977,23.776
					c-2.013,10.063-8.83,25.463-15.233,39.2l-1.409,3.024l3.196-0.953c0.811-0.241,1.658-0.363,2.52-0.363
					c3.374,0,6.97,1.881,10.398,5.44c4.297,4.463,5.637,11.126,3.979,19.805l-0.346,1.814l1.846-0.033
					c1.954-0.035,3.613-0.179,4.66-0.294l0.78-0.085l0.375-0.69c0.973-1.792,1.969-3.48,2.881-4.885
					c13.959-21.5,26.902-32.401,38.47-32.401c3.638,0,7.235,1.097,10.692,3.259c3.439,2.151,7.694,7.246,8.368,14.523
					c0.526,5.682-1.028,14.46-11.42,24.021c-5.724,5.266-27.237,16.126-27.454,16.236l-0.487,0.245l-0.216,0.502
					c-0.598,1.388-5.76,13.74-3.035,19.908c0.703,1.59,1.85,2.668,3.409,3.206c1.35,0.466,2.805,0.701,4.324,0.701
					c12.954-0.002,29.369-17.234,39.178-27.53l0.796-0.835c4.45-4.668,13.68-18.205,17.441-23.809l0.66-0.983l-0.803-0.87
					c-6.951-7.533-8.504-17.089-4.613-28.403c1.813-5.28,8.999-15.129,16.265-15.129c0.531,0,1.062,0.052,1.581,0.156
					c6.391,1.278,8.865,5.854,7.564,13.991c-0.592,3.695-6.547,13.661-8.792,17.189l-0.582,0.916l0.687,0.839
					c0.915,1.118,2.532,1.661,4.944,1.661c4.601,0,11.562-2.076,13.824-3.712c1.323-0.957,2.644-2.747,4.042-4.643
					c1.234-1.674,2.771-3.756,3.732-4.242c0.625-0.315,1.39-0.481,2.211-0.481c3.926,0,9.768,3.884,9.768,14.584
					c0,7.088-7.748,19.056-14.585,29.615c-9.021,13.935-16.813,25.97-11.157,30.961c0.864,0.763,2.11,1.149,3.702,1.149
					c4.877,0,12.277-3.521,17.598-8.371c2.4-2.188,4.993-5.514,7.737-9.033c6.656-8.536,14.94-19.159,24.855-19.159
					c1.871,0,3.783,0.379,5.683,1.128c8.349,3.29,10.709,19.141,9.676,28.817c-2.641,24.709-22.708,45.404-56.506,58.275
					c-18.955,7.218-49.245,10.728-92.589,10.728c-0.005,0-0.005,0-0.01,0c-37.499-0.001-77.374-2.578-112.556-4.854
					c-19.767-1.277-36.839-2.381-50.466-2.822c-19.378-0.628-36.582-0.933-52.594-0.933
					C276.672,340.587,217.792,358.292,209.275,396.264z M379.665,212.854c-12.917,0.407-26.932,27.784-29.61,33.269
					c-3.966,8.122-12.802,28.009-9.196,37.229c0.849,2.171,2.309,3.671,4.338,4.461c0.916,0.355,1.9,0.536,2.927,0.536
					c9.044,0,19.496-14.344,19.937-14.954l0.142-0.197l5.703-18.146l15.574-32.706l-0.038-0.412
					c-0.294-3.143-2.637-9.086-9.404-9.086C379.915,212.847,379.791,212.849,379.665,212.854z M547.545,231.132
					c-14.255,29.873-22.589,48.392-18.138,53.687c0.834,0.991,2.019,1.515,3.425,1.515c9.192,0,29.567-23.638,33.594-33.301
					c0.947-2.276,1.729-4.446,2.39-6.636l0.526-1.744l-1.812-0.182c-4.033-0.406-7.214-1.273-9.454-2.578
					c-2.889-1.68-6.398-5.581-7.729-10.507l-1.057-3.912L547.545,231.132z M629.663,218.805c-3.859,0-7.676,3.059-11.344,9.092
					c-7.979,13.126-12.071,25.783-12.242,26.315l-1.019,3.185l3.056-1.356c0.661-0.294,16.241-7.238,20.314-11.681
					c4.856-5.3,8.746-14.482,8.324-19.65c-0.145-1.759-0.754-3.073-1.812-3.904C633.252,219.479,631.477,218.805,629.663,218.805z
					 M559.517,221.085c-1.731,0-3.229,0.868-4.106,2.381c-1.558,2.683-1.009,6.871,1.466,11.203
					c2.053,3.591,5.961,5.921,11.616,6.925l1.504,0.267l0.239-1.509c1.086-6.839-0.326-10.184-0.983-11.304
					C566.283,223.988,562.734,221.085,559.517,221.085z"/>
			</g>
		</g>
		<g>
			<path fill="#FFFFFF" d="M337.424,475.435h-22.269l22.424-105.006c-13.455,5.567-21.651,17.166-21.651,33.713
				c0,7.888,2.01,9.125,2.165,10.517c-10.67,0-16.547-3.866-16.547-15.001c0-20.568,28.456-40.209,54.282-40.209
				c2.165,0,4.175,0.155,6.186,0.31L337.424,475.435z"/>
			<path fill="#FFFFFF" d="M460.061,408.936c0,24.126-12.217,66.499-43.456,66.499c-10.516,0-17.321-4.021-18.867-12.836
				c-7.269,6.65-15.62,12.836-22.115,12.836c-11.908,0-19.331-5.258-19.331-16.856c0-2.32,0.31-4.949,0.928-7.888l11.134-52.58
				h22.27l-11.135,52.58c-0.309,1.701-0.619,3.402-0.619,4.795c0,3.402,1.546,5.876,7.732,5.876c3.248,0,7.114-2.319,10.825-5.412
				c0-1.547,0.31-3.402,0.773-5.259l11.135-52.58h22.269l-11.135,52.58c-0.464,2.166-0.773,4.021-0.773,5.723
				c0,2.938,1.392,4.948,5.876,4.948c15.155,0,25.517-33.867,25.517-50.725c-0.928,0.31-2.319,0.619-3.247,0.619
				c-4.485,0-6.495-4.33-6.495-8.66c0-3.248,3.711-7.578,8.814-7.578C456.813,395.018,460.061,400.895,460.061,408.936z"/>
			<path fill="#FFFFFF" d="M533.673,398.11l-11.135,52.58c-0.31,1.701-0.619,3.402-0.619,4.795c0,3.402,1.547,5.876,7.732,5.876
				c6.187,0,14.228-8.66,20.414-13.608h5.258c-7.114,7.113-24.589,27.682-36.651,27.682c-10.053,0-16.856-3.712-18.867-11.753
				c-4.64,6.34-11.599,12.681-21.032,12.681c-14.846,0-19.176-10.516-19.176-19.64c0-26.6,9.588-58.457,40.518-58.457
				c3.711,0,7.577,1.546,10.361,3.866l0.928-4.021H533.673z M480.474,452.547c0,9.278,5.104,10.979,8.97,10.979
				c3.557,0,6.959-3.402,9.897-7.732c0.154-1.546,0.464-3.247,0.928-5.104l8.66-40.981c-2.475-2.165-5.412-2.783-7.577-2.783
				C489.753,406.926,480.474,431.515,480.474,452.547z"/>
			<path fill="#FFFFFF" d="M595.376,475.435c-10.052,0-15.773-5.258-15.773-16.856c0-2.475,0.309-4.949,0.928-7.888l5.876-27.836
				c0.31-1.392,0.465-2.784,0.465-4.021c0-5.566-2.938-9.124-7.114-9.124c-3.712,0-6.495,1.083-9.743,3.248l-13.145,62.478H534.6
				l16.393-77.324h22.27l-1.855,8.352c6.34-4.64,13.454-8.352,20.259-8.352c8.505,0,17.784,8.97,17.784,19.486
				c0,1.236-0.154,2.319-0.31,3.557c-0.773,5.104-7.423,32.321-7.423,35.724c0,2.629,1.237,4.794,5.722,4.794
				c1.083,0,2.784,0,4.021-0.464C607.13,474.507,600.635,475.435,595.376,475.435z"/>
		</g>
	</g>
	<g display="inline">
		
			<text transform="matrix(1 0 0 1 112.2168 87.2061)" fill="#FFFFFF" font-family="'HelveticaNeue-Bold'" font-size="44" letter-spacing="12">HAIRSTUDIO VARIATY</text>
		
			<line fill="none" stroke="#FFFFFF" stroke-width="3" stroke-miterlimit="10" x1="108.587" y1="104.213" x2="806.846" y2="104.213"/>
	</g>
</g>
<g id="Layer_3" display="none">
	<g display="inline">
		<g>
			<g>
				<path fill="#FFFFFF" d="M155.307,312.226c-3.008,0-5.814-0.664-8.115-1.919c-6.322-3.45-6.904-10.322-6.62-14.402
					c1.488,0.603,3.329,1.123,5.25,1.123c3.07,0,5.62-1.33,7.374-3.845c15.078-21.623,38.852-72.743,56.14-111.82l3.117-7.044
					l-6.659,3.872c-10.965,6.375-29.459,18.913-30.13,31.263c-0.04,0.723-0.001,1.4,0.098,2.034
					c-1.752-0.897-3.513-2.183-4.777-4.017c-2.107-3.056-2.479-7.173-1.106-12.236c3.812-14.048,25.863-32.469,51.294-42.849
					l0.95-0.388l0.404-0.943c3.014-7.04,5.285-12.428,6.514-15.357c3.053,1.64,8.367,4.939,10.759,9.104l0.881,1.534l1.74-0.32
					c4.563-0.84,8.94-1.266,13.01-1.266c11.58,0,20.539,3.346,26.627,9.944c19.32,20.938-0.239,44.396-1.082,45.384l-1.756,2.061
					l2.192,1.589c0.994,0.724,24.32,18.148,15.74,49.505c-6.314,23.076-28.942,48.771-58.441,50.936
					c-1.945,0.143-3.847,0.215-5.65,0.215c0,0-0.001,0-0.001,0c-16.285,0-26.708-5.922-30.142-17.125
					c-4.735-15.449,4.518-35.747,12.829-41.37c4.33-2.93,8.306-4.415,11.816-4.415c3.522,0,5.888,1.536,7.252,2.824
					c0.595,0.562,0.674,1.04,0.676,1.393c0.003,0.57-0.21,1.193-0.514,1.785c-1.289-1.202-3.125-2.255-5.612-2.616
					c-0.871-0.126-1.693-0.188-2.514-0.188c-5.184,0-12.133,2.514-15.804,14.49c-1.447,4.721-0.529,9.639,2.584,13.849
					c4.423,5.981,12.424,9.552,21.404,9.552c0.001,0,0.003,0,0.005,0c12.597-0.002,25.295-6.875,35.755-19.355
					c20.849-24.875,4.262-51.366,4.092-51.63l-0.963-1.5l-1.732,0.422c-0.189,0.046-19.032,4.619-26.699,4.619
					c-0.308,0-0.596-0.008-0.863-0.025c-3.934-0.25-7.186-2.535-8.487-5.963c-1.508-3.972-0.156-8.484,3.711-12.38
					c1.027-1.035,4.617-1.708,7.239-2.199c2.329-0.436,4.528-0.848,6.122-1.571c3.552-1.609,8.296-5.651,12.087-10.296
					c3.258-3.992,6.925-9.77,5.896-14.63c-0.836-3.953-3.794-8.666-13.137-8.666c-5.115,0-11.875,1.436-20.091,4.269l-1.204,0.415
					l-0.372,1.218c-13.358,43.676-32.577,86.741-60.48,135.527C172.068,307.534,163.596,312.226,155.307,312.226z"/>
			</g>
			<g>
				<path fill="#FFFFFF" d="M191.275,399.264c-6.163-2.667-27.667-12.869-31.812-26.91c-1.578-5.346-0.411-10.77,3.469-16.121
					c19.43-26.8,63.751-39.827,135.497-39.827c37.463,0,77.635,3.401,113.078,6.402c6.972,0.59,13.794,1.168,20.423,1.706
					c12.924,1.049,128.325,10.247,199.756,10.247c27.071,0,44.74-1.343,52.516-3.989c21.082-7.177,46.816-21.391,49.696-48.353
					c0.991-9.278-0.477-20.821-6.041-24.241c-1.267-0.777-2.613-1.173-4.004-1.173c-5.14,0-10.269,5.267-16.879,13.765
					c-21.417,27.531-34.613,30.716-42.677,30.716c-2.828,0-5.656-0.493-8.406-1.466c-6.742-2.385-10.953-6.366-12.516-11.835
					c-4.739-16.587,15.3-41.923,15.503-42.177l1.072-1.342l-1.475-0.882c-0.05-0.03-5.066-3.033-8.115-5.208l-1.282-0.916
					l-0.852,1.326c-3.663,5.706-12.595,19.484-16.393,24.174c-12.423,15.343-36.762,38.167-52.896,38.167
					c-0.638,0-1.265-0.036-1.865-0.107c-9.966-1.191-16.799-4.981-20.308-11.267c-7.041-12.608,0.704-32.354,4.361-40.259
					l1.062-2.296l-2.524,0.17c-0.867,0.058-1.879,0.11-2.985,0.138l-1.083,0.027l-0.314,1.037
					c-1.088,3.585-2.583,7.346-4.443,11.179c-8.088,16.663-32.909,41.38-50.627,41.38c-2.874,0-5.473-0.667-7.724-1.981
					c-7.83-4.573-11.461-11.741-11.102-21.913l0.137-3.862l-2.707,2.759c-5.845,5.96-26.086,25.405-41.121,25.405
					c-1.817,0-3.514-0.292-5.041-0.868c-9.368-3.533-14.785-8.789-16.1-15.621c-3.604-18.732,23.618-43.885,23.894-44.137
					l1.378-1.261l-1.528-1.074c-0.042-0.029-4.254-2.993-8.421-6.324l-1.386-1.107l-0.862,1.551
					c-17.384,31.28-43.251,68.01-58.936,68.58c-0.487,0.018-0.959,0.026-1.425,0.026c-18.271,0-19.901-13.227-19.961-13.79
					l-0.403-3.756l-2.284,3.011c-0.105,0.139-10.706,13.895-25.042,13.895c-2.261,0-4.532-0.345-6.75-1.023
					c-7.212-2.208-12.046-7.296-14.368-15.123c-5.058-17.052,3.23-42.271,10.931-51.469c14.777-17.651,28.496-26.601,40.776-26.601
					c13.857,0,21.079,11.89,21.15,12.01l1.252,2.109l12.68-20.138c4.422,4.111,10.461,10.514,11.086,13.439
					c1.86,8.703-5.546,25.375-12.081,40.084c-7.489,16.859-12.901,29.041-7.304,32.432c0.628,0.38,1.345,0.573,2.131,0.573
					c0,0,0.001,0,0.002,0c10.688-0.004,38.915-42.793,47.312-55.908l0.691-1.081l-0.961-0.851c-2.422-2.145-3.47-3.388-3.922-4.053
					c-7.635-11.23-0.978-26.727,3.67-34.964c2.936-5.204,6.394-7.842,10.278-7.842c3.02,0,5.836,1.548,7.691,2.713
					c5.553,3.486,1.479,21.846-2.392,32.601l-0.486,1.351l1.328,0.545c0.298,0.122,7.338,2.988,11.286,2.988
					c0.742,0,1.357-0.094,1.879-0.289c2.253-0.839,4.336-3.401,6.542-6.114c2.083-2.562,4.675-5.75,6.462-5.75
					c0.043,0,0.085,0.002,0.127,0.006c0.88,0.081,1.724,0.655,2.509,1.707c2.599,3.484,3.584,10.963,2.955,14.113
					c-1.262,6.315-8.086,16.08-14.687,25.523c-10.23,14.639-19.066,27.282-13.196,32.98c1.053,1.022,2.435,1.54,4.106,1.54
					c8.662-0.001,24.481-14.724,30.88-21.054l0.283-0.279l0.106-0.383c6.962-24.89,29.327-56.38,44.128-77.217
					c4.744-6.68,8.842-12.449,11.644-16.852c5.292-8.315,7.777-14.065,8.887-17.155c2.686,3.448,7.419,11.562,4.977,23.776
					c-2.013,10.063-8.83,25.463-15.233,39.2l-1.409,3.024l3.196-0.953c0.811-0.241,1.658-0.363,2.52-0.363
					c3.374,0,6.97,1.881,10.398,5.44c4.297,4.463,5.637,11.126,3.979,19.805l-0.346,1.814l1.846-0.033
					c1.954-0.035,3.613-0.179,4.66-0.294l0.78-0.085l0.375-0.69c0.973-1.792,1.969-3.48,2.881-4.885
					c13.959-21.5,26.902-32.401,38.47-32.401c3.638,0,7.235,1.097,10.692,3.259c3.439,2.151,7.694,7.246,8.368,14.523
					c0.526,5.682-1.028,14.46-11.42,24.021c-5.724,5.266-27.237,16.126-27.454,16.236l-0.487,0.245l-0.216,0.502
					c-0.598,1.388-5.76,13.74-3.035,19.908c0.703,1.59,1.85,2.668,3.409,3.206c1.35,0.466,2.805,0.701,4.324,0.701
					c12.954-0.002,29.369-17.234,39.178-27.53l0.796-0.835c4.45-4.668,13.68-18.205,17.441-23.809l0.66-0.983l-0.803-0.87
					c-6.951-7.533-8.504-17.089-4.613-28.403c1.813-5.28,8.999-15.129,16.265-15.129c0.531,0,1.062,0.052,1.581,0.156
					c6.391,1.278,8.865,5.854,7.564,13.991c-0.592,3.695-6.547,13.661-8.792,17.189l-0.582,0.916l0.687,0.839
					c0.915,1.118,2.532,1.661,4.944,1.661c4.601,0,11.562-2.076,13.824-3.712c1.323-0.957,2.644-2.747,4.042-4.643
					c1.234-1.674,2.771-3.756,3.732-4.242c0.625-0.315,1.39-0.481,2.211-0.481c3.926,0,9.768,3.884,9.768,14.584
					c0,7.088-7.748,19.056-14.585,29.615c-9.021,13.935-16.813,25.97-11.157,30.961c0.864,0.763,2.11,1.149,3.702,1.149
					c4.877,0,12.277-3.521,17.598-8.371c2.4-2.188,4.993-5.514,7.737-9.033c6.656-8.536,14.94-19.159,24.855-19.159
					c1.871,0,3.783,0.38,5.683,1.128c8.349,3.29,10.709,19.141,9.676,28.817c-2.641,24.709-22.708,45.404-56.506,58.275
					c-18.955,7.218-49.245,10.728-92.589,10.728c-0.005,0-0.005,0-0.01,0c-37.499-0.001-77.374-2.578-112.556-4.854
					c-19.767-1.277-36.839-2.381-50.466-2.822c-19.378-0.628-36.582-0.933-52.594-0.933
					C258.672,343.587,199.792,361.292,191.275,399.264z M361.665,215.854c-12.917,0.407-26.932,27.784-29.61,33.269
					c-3.966,8.122-12.802,28.009-9.196,37.229c0.849,2.171,2.309,3.671,4.338,4.461c0.916,0.355,1.9,0.536,2.927,0.536
					c9.044,0,19.496-14.344,19.937-14.954l0.142-0.197l5.703-18.146l15.574-32.706l-0.038-0.412
					c-0.294-3.143-2.637-9.086-9.404-9.086C361.915,215.847,361.791,215.849,361.665,215.854z M529.545,234.132
					c-14.255,29.873-22.589,48.392-18.138,53.687c0.834,0.991,2.019,1.515,3.425,1.515c9.192,0,29.567-23.638,33.594-33.301
					c0.947-2.276,1.729-4.446,2.39-6.636l0.526-1.744l-1.812-0.182c-4.033-0.406-7.214-1.273-9.454-2.578
					c-2.889-1.68-6.398-5.581-7.729-10.507l-1.057-3.912L529.545,234.132z M611.663,221.805c-3.859,0-7.676,3.059-11.344,9.092
					c-7.979,13.126-12.071,25.783-12.242,26.315l-1.019,3.185l3.056-1.356c0.661-0.294,16.241-7.238,20.314-11.681
					c4.856-5.3,8.746-14.482,8.324-19.65c-0.145-1.759-0.754-3.073-1.812-3.904C615.252,222.479,613.477,221.805,611.663,221.805z
					 M541.517,224.085c-1.731,0-3.229,0.868-4.106,2.381c-1.558,2.683-1.009,6.871,1.466,11.203
					c2.053,3.591,5.961,5.921,11.616,6.925l1.504,0.267l0.239-1.509c1.086-6.839-0.326-10.184-0.983-11.304
					C548.283,226.988,544.734,224.085,541.517,224.085z"/>
			</g>
		</g>
		<g>
			<path fill="#FFFFFF" d="M319.424,478.435h-22.269l22.424-105.006c-13.455,5.567-21.651,17.166-21.651,33.713
				c0,7.888,2.01,9.125,2.165,10.517c-10.67,0-16.547-3.866-16.547-15.001c0-20.568,28.456-40.209,54.282-40.209
				c2.165,0,4.175,0.155,6.186,0.31L319.424,478.435z"/>
			<path fill="#FFFFFF" d="M442.061,411.936c0,24.126-12.217,66.499-43.456,66.499c-10.516,0-17.321-4.021-18.867-12.836
				c-7.269,6.65-15.62,12.836-22.115,12.836c-11.908,0-19.331-5.258-19.331-16.856c0-2.32,0.31-4.949,0.928-7.888l11.134-52.58
				h22.27l-11.135,52.58c-0.309,1.701-0.619,3.402-0.619,4.795c0,3.402,1.546,5.876,7.732,5.876c3.248,0,7.114-2.319,10.825-5.412
				c0-1.547,0.31-3.402,0.773-5.259l11.135-52.58h22.269l-11.135,52.58c-0.464,2.166-0.773,4.021-0.773,5.723
				c0,2.938,1.392,4.948,5.876,4.948c15.155,0,25.517-33.867,25.517-50.725c-0.928,0.31-2.319,0.619-3.247,0.619
				c-4.485,0-6.495-4.33-6.495-8.66c0-3.248,3.711-7.578,8.814-7.578C438.813,398.018,442.061,403.895,442.061,411.936z"/>
			<path fill="#FFFFFF" d="M515.673,401.11l-11.135,52.58c-0.31,1.701-0.619,3.402-0.619,4.795c0,3.402,1.547,5.876,7.732,5.876
				c6.187,0,14.228-8.66,20.414-13.608h5.258c-7.114,7.113-24.589,27.682-36.651,27.682c-10.053,0-16.856-3.712-18.867-11.753
				c-4.64,6.34-11.599,12.681-21.032,12.681c-14.846,0-19.176-10.516-19.176-19.64c0-26.6,9.588-58.457,40.518-58.457
				c3.711,0,7.577,1.546,10.361,3.866l0.928-4.021H515.673z M462.474,455.547c0,9.278,5.104,10.979,8.97,10.979
				c3.557,0,6.959-3.402,9.897-7.732c0.154-1.546,0.464-3.247,0.928-5.104l8.66-40.981c-2.475-2.165-5.412-2.783-7.577-2.783
				C471.753,409.926,462.474,434.515,462.474,455.547z"/>
			<path fill="#FFFFFF" d="M577.376,478.435c-10.052,0-15.773-5.258-15.773-16.856c0-2.475,0.309-4.949,0.928-7.888l5.876-27.836
				c0.31-1.392,0.465-2.784,0.465-4.021c0-5.566-2.938-9.124-7.114-9.124c-3.712,0-6.495,1.083-9.743,3.248l-13.145,62.478H516.6
				l16.393-77.324h22.27l-1.855,8.352c6.34-4.64,13.454-8.352,20.259-8.352c8.505,0,17.784,8.97,17.784,19.486
				c0,1.236-0.154,2.319-0.31,3.557c-0.773,5.104-7.423,32.321-7.423,35.724c0,2.629,1.237,4.794,5.722,4.794
				c1.083,0,2.784,0,4.021-0.464C589.13,477.507,582.635,478.435,577.376,478.435z"/>
		</g>
	</g>
	<g display="inline">
		<g>
			<path fill="#FFFFFF" d="M131.296,53.362v12.604h13.294V53.362h7.222v32.844h-7.222V72.038h-13.294v14.168h-7.222V53.362H131.296z
				"/>
			<path fill="#FFFFFF" d="M182.815,53.362l12.282,32.844H187.6l-2.484-7.314h-12.282l-2.576,7.314h-7.268l12.42-32.844H182.815z
				 M183.229,73.51l-4.14-12.052h-0.092L174.72,73.51H183.229z"/>
			<path fill="#FFFFFF" d="M213.452,53.362v32.844h-7.222V53.362H213.452z"/>
			<path fill="#FFFFFF" d="M245.79,53.362c1.472,0,2.798,0.238,3.979,0.713c1.18,0.476,2.192,1.127,3.036,1.955
				c0.843,0.828,1.487,1.787,1.932,2.875c0.444,1.089,0.667,2.262,0.667,3.519c0,1.932-0.407,3.604-1.219,5.014
				c-0.812,1.411-2.139,2.484-3.979,3.22v0.092c0.889,0.246,1.625,0.621,2.208,1.127s1.058,1.104,1.426,1.794
				c0.368,0.69,0.636,1.449,0.805,2.277c0.168,0.828,0.283,1.656,0.345,2.484c0.03,0.522,0.061,1.135,0.092,1.84
				c0.03,0.706,0.084,1.426,0.161,2.162c0.076,0.736,0.199,1.434,0.368,2.093c0.168,0.66,0.421,1.219,0.759,1.679h-7.222
				c-0.399-1.042-0.644-2.284-0.736-3.726c-0.092-1.441-0.23-2.821-0.414-4.14c-0.246-1.717-0.767-2.974-1.564-3.772
				c-0.798-0.797-2.101-1.196-3.91-1.196h-7.222v12.834h-7.222V53.362H245.79z M243.214,68.22c1.656,0,2.898-0.368,3.726-1.104
				c0.828-0.736,1.242-1.932,1.242-3.588c0-1.594-0.414-2.752-1.242-3.473c-0.828-0.72-2.07-1.081-3.726-1.081h-7.912v9.246H243.214
				z"/>
			<path fill="#FFFFFF" d="M275.091,78.11c0.398,0.767,0.927,1.388,1.587,1.863c0.659,0.476,1.434,0.828,2.323,1.058
				c0.889,0.23,1.809,0.345,2.76,0.345c0.644,0,1.334-0.053,2.07-0.161c0.736-0.107,1.426-0.314,2.07-0.621
				c0.644-0.306,1.18-0.729,1.61-1.265c0.429-0.536,0.644-1.219,0.644-2.047c0-0.889-0.284-1.61-0.851-2.162
				c-0.568-0.552-1.311-1.012-2.231-1.38c-0.92-0.368-1.963-0.69-3.128-0.966c-1.166-0.276-2.346-0.582-3.542-0.92
				c-1.227-0.306-2.423-0.682-3.588-1.127c-1.166-0.444-2.208-1.019-3.128-1.725c-0.92-0.705-1.664-1.587-2.231-2.645
				c-0.568-1.058-0.851-2.338-0.851-3.841c0-1.686,0.36-3.151,1.081-4.393c0.72-1.242,1.663-2.277,2.829-3.105
				c1.165-0.828,2.484-1.441,3.956-1.84c1.472-0.398,2.944-0.598,4.416-0.598c1.717,0,3.365,0.192,4.945,0.575
				c1.579,0.384,2.982,1.004,4.209,1.863c1.226,0.859,2.2,1.955,2.921,3.289c0.72,1.334,1.081,2.952,1.081,4.853h-6.992
				c-0.062-0.981-0.269-1.794-0.621-2.438c-0.353-0.644-0.821-1.15-1.403-1.518c-0.583-0.368-1.25-0.628-2.001-0.782
				c-0.752-0.153-1.572-0.23-2.461-0.23c-0.583,0-1.166,0.062-1.748,0.184c-0.583,0.123-1.112,0.338-1.587,0.644
				c-0.476,0.307-0.867,0.69-1.173,1.15c-0.307,0.46-0.46,1.043-0.46,1.748c0,0.644,0.122,1.166,0.368,1.564
				c0.245,0.399,0.728,0.767,1.449,1.104c0.72,0.338,1.717,0.675,2.99,1.012c1.272,0.338,2.936,0.767,4.991,1.288
				c0.613,0.123,1.464,0.345,2.553,0.667c1.088,0.322,2.169,0.836,3.243,1.541c1.073,0.706,2.001,1.648,2.783,2.829
				c0.782,1.181,1.173,2.691,1.173,4.531c0,1.503-0.292,2.898-0.874,4.186c-0.583,1.288-1.449,2.4-2.599,3.335
				c-1.15,0.936-2.576,1.664-4.278,2.185s-3.673,0.782-5.911,0.782c-1.81,0-3.565-0.223-5.267-0.667
				c-1.702-0.444-3.205-1.142-4.508-2.093c-1.304-0.95-2.339-2.162-3.105-3.634c-0.767-1.472-1.135-3.22-1.104-5.244h6.992
				C274.493,76.408,274.692,77.344,275.091,78.11z"/>
			<path fill="#FFFFFF" d="M305.128,59.434v-6.072h26.91v6.072h-9.844v26.772h-7.222V59.434H305.128z"/>
			<path fill="#FFFFFF" d="M368.24,83.699c-2.484,2.162-5.919,3.243-10.304,3.243c-4.447,0-7.889-1.073-10.327-3.22
				c-2.438-2.146-3.657-5.458-3.657-9.936V53.362h7.222v20.424c0,0.89,0.076,1.764,0.23,2.622c0.153,0.859,0.475,1.618,0.966,2.277
				c0.49,0.66,1.173,1.196,2.047,1.61s2.047,0.621,3.519,0.621c2.576,0,4.354-0.575,5.336-1.725c0.981-1.15,1.472-2.951,1.472-5.405
				V53.362h7.222v20.424C371.966,78.233,370.724,81.537,368.24,83.699z"/>
			<path fill="#FFFFFF" d="M400.624,53.362c2.116,0,4.086,0.338,5.911,1.012c1.824,0.675,3.404,1.687,4.738,3.036
				c1.334,1.35,2.376,3.036,3.128,5.06c0.751,2.024,1.127,4.401,1.127,7.13c0,2.392-0.307,4.6-0.92,6.624
				c-0.614,2.024-1.541,3.772-2.783,5.244c-1.242,1.472-2.791,2.63-4.646,3.473c-1.856,0.844-4.041,1.265-6.555,1.265h-14.168
				V53.362H400.624z M400.118,80.134c1.042,0,2.054-0.168,3.036-0.506c0.981-0.337,1.855-0.897,2.622-1.679
				c0.766-0.782,1.38-1.801,1.84-3.059c0.46-1.257,0.69-2.79,0.69-4.6c0-1.656-0.161-3.151-0.483-4.485s-0.851-2.476-1.587-3.427
				c-0.736-0.95-1.71-1.679-2.921-2.185c-1.212-0.506-2.707-0.759-4.485-0.759h-5.152v20.7H400.118z"/>
			<path fill="#FFFFFF" d="M436.043,53.362v32.844h-7.222V53.362H436.043z"/>
			<path fill="#FFFFFF" d="M450.35,63.091c0.736-2.1,1.794-3.933,3.174-5.497s3.074-2.791,5.083-3.68
				c2.009-0.889,4.271-1.334,6.785-1.334c2.545,0,4.813,0.445,6.808,1.334c1.994,0.89,3.68,2.116,5.061,3.68
				c1.38,1.564,2.438,3.396,3.174,5.497c0.736,2.101,1.104,4.378,1.104,6.831c0,2.392-0.367,4.623-1.104,6.693
				c-0.736,2.07-1.794,3.872-3.174,5.405c-1.381,1.534-3.066,2.737-5.061,3.611s-4.263,1.311-6.808,1.311
				c-2.515,0-4.776-0.437-6.785-1.311s-3.703-2.077-5.083-3.611c-1.38-1.533-2.438-3.335-3.174-5.405
				c-0.736-2.07-1.104-4.301-1.104-6.693C449.246,67.469,449.614,65.192,450.35,63.091z M456.951,73.947
				c0.321,1.304,0.834,2.477,1.541,3.519c0.705,1.043,1.625,1.879,2.76,2.507c1.134,0.629,2.514,0.943,4.14,0.943
				c1.625,0,3.005-0.314,4.14-0.943c1.135-0.628,2.055-1.464,2.76-2.507c0.705-1.042,1.22-2.215,1.541-3.519
				c0.322-1.303,0.483-2.645,0.483-4.025c0-1.441-0.161-2.836-0.483-4.186c-0.321-1.349-0.836-2.553-1.541-3.611
				s-1.625-1.901-2.76-2.53c-1.135-0.628-2.515-0.943-4.14-0.943c-1.626,0-3.006,0.315-4.14,0.943
				c-1.135,0.629-2.055,1.472-2.76,2.53c-0.707,1.058-1.22,2.262-1.541,3.611c-0.322,1.35-0.483,2.745-0.483,4.186
				C456.468,71.302,456.629,72.644,456.951,73.947z"/>
			<path fill="#FFFFFF" d="M522.938,86.206l-10.625-32.844h7.405l7.313,23.092h0.093l7.405-23.092h7.453L531.08,86.206H522.938z"/>
			<path fill="#FFFFFF" d="M567.327,53.362l12.282,32.844h-7.498l-2.484-7.314h-12.281l-2.576,7.314h-7.268l12.42-32.844H567.327z
				 M567.741,73.51l-4.14-12.052h-0.092l-4.278,12.052H567.741z"/>
			<path fill="#FFFFFF" d="M608.451,53.362c1.473,0,2.799,0.238,3.979,0.713c1.181,0.476,2.193,1.127,3.037,1.955
				c0.843,0.828,1.486,1.787,1.932,2.875c0.444,1.089,0.667,2.262,0.667,3.519c0,1.932-0.407,3.604-1.22,5.014
				c-0.812,1.411-2.139,2.484-3.979,3.22v0.092c0.889,0.246,1.625,0.621,2.208,1.127s1.058,1.104,1.427,1.794
				c0.367,0.69,0.636,1.449,0.805,2.277c0.168,0.828,0.283,1.656,0.345,2.484c0.03,0.522,0.062,1.135,0.092,1.84
				c0.03,0.706,0.085,1.426,0.161,2.162s0.199,1.434,0.368,2.093c0.168,0.66,0.421,1.219,0.759,1.679h-7.222
				c-0.399-1.042-0.644-2.284-0.736-3.726c-0.092-1.441-0.229-2.821-0.414-4.14c-0.245-1.717-0.767-2.974-1.563-3.772
				c-0.799-0.797-2.102-1.196-3.91-1.196h-7.223v12.834h-7.222V53.362H608.451z M605.875,68.22c1.656,0,2.898-0.368,3.727-1.104
				c0.828-0.736,1.242-1.932,1.242-3.588c0-1.594-0.414-2.752-1.242-3.473c-0.828-0.72-2.07-1.081-3.727-1.081h-7.912v9.246H605.875
				z"/>
			<path fill="#FFFFFF" d="M639.455,53.362v32.844h-7.223V53.362H639.455z"/>
			<path fill="#FFFFFF" d="M670.459,53.362l12.281,32.844h-7.498l-2.483-7.314h-12.282l-2.576,7.314h-7.268l12.42-32.844H670.459z
				 M670.873,73.51l-4.141-12.052h-0.092l-4.277,12.052H670.873z"/>
			<path fill="#FFFFFF" d="M687.064,59.434v-6.072h26.91v6.072h-9.844v26.772h-7.223V59.434H687.064z"/>
			<path fill="#FFFFFF" d="M722.484,53.362h8.096l7.683,12.972l7.636-12.972h8.049l-12.189,20.24v12.604h-7.221V73.418
				L722.484,53.362z"/>
		</g>
		
			<line fill="none" stroke="#FFFFFF" stroke-width="3" stroke-miterlimit="10" x1="115.914" y1="103.213" x2="763.52" y2="103.213"/>
	</g>
</g>
<g id="Layer_4">
	<g>
		<g>
			<g>
				<path fill="#FFFFFF" d="M152.307,309.226c-3.008,0-5.814-0.664-8.115-1.919c-6.322-3.45-6.904-10.322-6.62-14.402
					c1.488,0.603,3.329,1.123,5.25,1.123c3.07,0,5.62-1.33,7.374-3.845c15.078-21.623,38.852-72.743,56.14-111.82l3.117-7.044
					l-6.659,3.872c-10.965,6.375-29.459,18.913-30.13,31.263c-0.04,0.723-0.001,1.4,0.098,2.034
					c-1.752-0.897-3.513-2.183-4.777-4.017c-2.107-3.056-2.479-7.173-1.106-12.236c3.812-14.048,25.863-32.469,51.294-42.849
					l0.95-0.388l0.404-0.943c3.014-7.04,5.285-12.428,6.514-15.357c3.053,1.64,8.367,4.939,10.759,9.104l0.881,1.534l1.74-0.32
					c4.563-0.84,8.94-1.266,13.01-1.266c11.58,0,20.539,3.346,26.627,9.944c19.32,20.938-0.239,44.396-1.082,45.384l-1.756,2.061
					l2.192,1.589c0.994,0.724,24.32,18.148,15.74,49.505c-6.314,23.077-28.942,48.771-58.441,50.936
					c-1.945,0.143-3.847,0.215-5.65,0.215c0,0-0.001,0-0.001,0c-16.285,0-26.708-5.922-30.142-17.125
					c-4.735-15.449,4.518-35.747,12.829-41.37c4.33-2.93,8.306-4.415,11.816-4.415c3.522,0,5.888,1.536,7.252,2.824
					c0.595,0.562,0.674,1.04,0.676,1.393c0.003,0.57-0.21,1.193-0.514,1.785c-1.289-1.202-3.125-2.255-5.612-2.616
					c-0.871-0.126-1.693-0.188-2.514-0.188c-5.184,0-12.133,2.514-15.804,14.49c-1.447,4.721-0.529,9.639,2.584,13.849
					c4.423,5.981,12.424,9.552,21.404,9.552c0.001,0,0.003,0,0.005,0c12.597-0.002,25.295-6.875,35.755-19.355
					c20.849-24.875,4.262-51.366,4.092-51.63l-0.963-1.5l-1.732,0.422c-0.189,0.046-19.032,4.619-26.699,4.619
					c-0.308,0-0.596-0.008-0.863-0.025c-3.934-0.25-7.186-2.535-8.487-5.963c-1.508-3.972-0.156-8.484,3.711-12.38
					c1.027-1.035,4.617-1.708,7.239-2.199c2.329-0.436,4.528-0.848,6.122-1.571c3.552-1.609,8.296-5.651,12.087-10.296
					c3.258-3.992,6.925-9.77,5.896-14.63c-0.836-3.953-3.794-8.666-13.137-8.666c-5.115,0-11.875,1.436-20.091,4.269l-1.204,0.415
					l-0.372,1.218c-13.358,43.676-32.577,86.741-60.48,135.527C169.068,304.534,160.596,309.226,152.307,309.226z"/>
			</g>
			<g>
				<path fill="#FFFFFF" d="M188.275,396.264c-6.163-2.667-27.667-12.869-31.812-26.91c-1.578-5.346-0.411-10.77,3.469-16.121
					c19.43-26.8,63.751-39.827,135.497-39.827c37.463,0,77.635,3.401,113.078,6.402c6.972,0.59,13.794,1.168,20.423,1.706
					c12.924,1.049,128.325,10.247,199.756,10.247c27.071,0,44.74-1.343,52.516-3.989c21.082-7.177,46.816-21.391,49.696-48.353
					c0.991-9.278-0.477-20.821-6.041-24.241c-1.267-0.777-2.613-1.173-4.004-1.173c-5.14,0-10.269,5.267-16.879,13.765
					c-21.417,27.531-34.613,30.716-42.677,30.716c-2.828,0-5.656-0.493-8.406-1.466c-6.742-2.385-10.953-6.366-12.516-11.835
					c-4.739-16.587,15.3-41.923,15.503-42.177l1.072-1.342l-1.475-0.882c-0.05-0.03-5.066-3.033-8.115-5.208l-1.282-0.916
					l-0.852,1.326c-3.663,5.706-12.595,19.484-16.393,24.174c-12.423,15.343-36.762,38.167-52.896,38.167
					c-0.638,0-1.265-0.036-1.865-0.107c-9.966-1.191-16.799-4.981-20.308-11.267c-7.041-12.608,0.704-32.354,4.361-40.259
					l1.062-2.296l-2.524,0.17c-0.867,0.058-1.879,0.11-2.985,0.138l-1.083,0.027l-0.314,1.037
					c-1.088,3.584-2.583,7.346-4.443,11.179c-8.088,16.663-32.909,41.38-50.627,41.38c-2.874,0-5.473-0.667-7.724-1.981
					c-7.83-4.573-11.461-11.741-11.102-21.913l0.137-3.862l-2.707,2.759c-5.845,5.96-26.086,25.405-41.121,25.405
					c-1.817,0-3.514-0.292-5.041-0.868c-9.368-3.533-14.785-8.789-16.1-15.621c-3.604-18.732,23.618-43.885,23.894-44.137
					l1.378-1.261l-1.528-1.074c-0.042-0.029-4.254-2.993-8.421-6.324l-1.386-1.107l-0.862,1.551
					c-17.384,31.28-43.251,68.01-58.936,68.58c-0.487,0.018-0.959,0.026-1.425,0.026c-18.271,0-19.901-13.227-19.961-13.79
					l-0.403-3.756l-2.284,3.011c-0.105,0.139-10.706,13.895-25.042,13.895c-2.261,0-4.532-0.345-6.75-1.023
					c-7.212-2.208-12.046-7.296-14.368-15.123c-5.058-17.052,3.23-42.271,10.931-51.469c14.777-17.651,28.496-26.601,40.776-26.601
					c13.857,0,21.079,11.89,21.15,12.01l1.252,2.109l12.68-20.138c4.422,4.111,10.461,10.514,11.086,13.439
					c1.86,8.703-5.546,25.375-12.081,40.084c-7.489,16.859-12.901,29.041-7.304,32.432c0.628,0.38,1.345,0.573,2.131,0.573
					c0,0,0.001,0,0.002,0c10.688-0.004,38.915-42.793,47.312-55.908l0.691-1.081l-0.961-0.851c-2.422-2.145-3.47-3.388-3.922-4.053
					c-7.635-11.23-0.978-26.727,3.67-34.964c2.936-5.204,6.394-7.842,10.278-7.842c3.02,0,5.836,1.548,7.691,2.713
					c5.553,3.486,1.479,21.846-2.392,32.601l-0.486,1.351l1.328,0.545c0.298,0.122,7.338,2.988,11.286,2.988
					c0.742,0,1.357-0.094,1.879-0.289c2.253-0.839,4.336-3.401,6.542-6.114c2.083-2.562,4.675-5.75,6.462-5.75
					c0.043,0,0.085,0.002,0.127,0.006c0.88,0.081,1.724,0.655,2.509,1.707c2.599,3.484,3.584,10.963,2.955,14.113
					c-1.262,6.315-8.086,16.08-14.687,25.523c-10.23,14.639-19.066,27.283-13.196,32.981c1.053,1.022,2.435,1.54,4.106,1.54
					c8.662-0.001,24.481-14.724,30.88-21.054l0.283-0.279l0.106-0.383c6.962-24.89,29.327-56.38,44.128-77.217
					c4.744-6.68,8.842-12.449,11.644-16.852c5.292-8.315,7.777-14.065,8.887-17.155c2.686,3.448,7.419,11.562,4.977,23.776
					c-2.013,10.063-8.83,25.463-15.233,39.2l-1.409,3.024l3.196-0.953c0.811-0.241,1.658-0.363,2.52-0.363
					c3.374,0,6.97,1.881,10.398,5.44c4.297,4.463,5.637,11.126,3.979,19.805l-0.346,1.814l1.846-0.033
					c1.954-0.035,3.613-0.179,4.66-0.294l0.78-0.085l0.375-0.69c0.973-1.792,1.969-3.48,2.881-4.885
					c13.959-21.5,26.902-32.401,38.47-32.401c3.638,0,7.235,1.097,10.692,3.259c3.439,2.151,7.694,7.246,8.368,14.523
					c0.526,5.682-1.028,14.46-11.42,24.021c-5.724,5.266-27.237,16.126-27.454,16.236l-0.487,0.245l-0.216,0.502
					c-0.598,1.388-5.76,13.74-3.035,19.908c0.703,1.59,1.85,2.668,3.409,3.206c1.35,0.466,2.805,0.701,4.324,0.701
					c12.954-0.002,29.369-17.234,39.178-27.53l0.796-0.835c4.45-4.668,13.68-18.205,17.441-23.809l0.66-0.983l-0.803-0.87
					c-6.951-7.533-8.504-17.089-4.613-28.403c1.813-5.28,8.999-15.129,16.265-15.129c0.531,0,1.062,0.052,1.581,0.156
					c6.391,1.278,8.865,5.854,7.564,13.991c-0.592,3.695-6.547,13.661-8.792,17.189l-0.582,0.916l0.687,0.839
					c0.915,1.118,2.532,1.661,4.944,1.661c4.601,0,11.562-2.076,13.824-3.712c1.323-0.957,2.644-2.747,4.042-4.643
					c1.234-1.674,2.771-3.756,3.732-4.242c0.625-0.315,1.39-0.481,2.211-0.481c3.926,0,9.768,3.884,9.768,14.584
					c0,7.088-7.748,19.056-14.585,29.615c-9.021,13.935-16.813,25.97-11.157,30.961c0.864,0.763,2.11,1.149,3.702,1.149
					c4.877,0,12.277-3.521,17.598-8.371c2.4-2.188,4.993-5.514,7.737-9.033c6.656-8.536,14.94-19.159,24.855-19.159
					c1.871,0,3.783,0.379,5.683,1.128c8.349,3.29,10.709,19.141,9.676,28.817c-2.641,24.709-22.708,45.404-56.506,58.275
					c-18.955,7.218-49.245,10.728-92.589,10.728c-0.005,0-0.005,0-0.01,0c-37.499-0.001-77.374-2.578-112.556-4.854
					c-19.767-1.277-36.839-2.381-50.466-2.822c-19.378-0.628-36.582-0.933-52.594-0.933
					C255.672,340.587,196.792,358.292,188.275,396.264z M358.665,212.854c-12.917,0.407-26.932,27.784-29.61,33.269
					c-3.966,8.122-12.802,28.009-9.196,37.229c0.849,2.171,2.309,3.671,4.338,4.461c0.916,0.355,1.9,0.536,2.927,0.536
					c9.044,0,19.496-14.344,19.937-14.954l0.142-0.197l5.703-18.146l15.574-32.706l-0.038-0.412
					c-0.294-3.143-2.637-9.086-9.404-9.086C358.915,212.847,358.791,212.849,358.665,212.854z M526.545,231.132
					c-14.255,29.873-22.589,48.392-18.138,53.687c0.834,0.991,2.019,1.515,3.425,1.515c9.192,0,29.567-23.638,33.594-33.301
					c0.947-2.276,1.729-4.446,2.39-6.636l0.526-1.744l-1.812-0.182c-4.033-0.406-7.214-1.273-9.454-2.578
					c-2.889-1.68-6.398-5.581-7.729-10.507l-1.057-3.912L526.545,231.132z M608.663,218.805c-3.859,0-7.676,3.059-11.344,9.092
					c-7.979,13.126-12.071,25.783-12.242,26.315l-1.019,3.185l3.056-1.356c0.661-0.294,16.241-7.238,20.314-11.681
					c4.856-5.3,8.746-14.482,8.324-19.65c-0.145-1.759-0.754-3.073-1.812-3.904C612.252,219.479,610.477,218.805,608.663,218.805z
					 M538.517,221.085c-1.731,0-3.229,0.868-4.106,2.381c-1.558,2.683-1.009,6.871,1.466,11.203
					c2.053,3.591,5.961,5.921,11.616,6.925l1.504,0.267l0.239-1.509c1.086-6.839-0.326-10.184-0.983-11.304
					C545.283,223.988,541.734,221.085,538.517,221.085z"/>
			</g>
		</g>
		<g>
			<path fill="#FFFFFF" d="M316.424,475.435h-22.269l22.424-105.006c-13.455,5.567-21.651,17.166-21.651,33.713
				c0,7.888,2.01,9.125,2.165,10.517c-10.67,0-16.547-3.866-16.547-15.001c0-20.568,28.456-40.209,54.282-40.209
				c2.165,0,4.175,0.155,6.186,0.31L316.424,475.435z"/>
			<path fill="#FFFFFF" d="M439.061,408.936c0,24.126-12.217,66.499-43.456,66.499c-10.516,0-17.321-4.021-18.867-12.836
				c-7.269,6.65-15.62,12.836-22.115,12.836c-11.908,0-19.331-5.258-19.331-16.856c0-2.32,0.31-4.949,0.928-7.888l11.134-52.58
				h22.27l-11.135,52.58c-0.309,1.701-0.619,3.402-0.619,4.795c0,3.402,1.546,5.876,7.732,5.876c3.248,0,7.114-2.319,10.825-5.412
				c0-1.547,0.31-3.402,0.773-5.259l11.135-52.58h22.269l-11.135,52.58c-0.464,2.166-0.773,4.021-0.773,5.723
				c0,2.938,1.392,4.948,5.876,4.948c15.155,0,25.517-33.867,25.517-50.725c-0.928,0.31-2.319,0.619-3.247,0.619
				c-4.485,0-6.495-4.33-6.495-8.66c0-3.248,3.711-7.578,8.814-7.578C435.813,395.018,439.061,400.895,439.061,408.936z"/>
			<path fill="#FFFFFF" d="M512.673,398.11l-11.135,52.58c-0.31,1.701-0.619,3.402-0.619,4.795c0,3.402,1.547,5.876,7.732,5.876
				c6.187,0,14.228-8.66,20.414-13.608h5.258c-7.114,7.113-24.589,27.682-36.651,27.682c-10.053,0-16.856-3.712-18.867-11.753
				c-4.64,6.34-11.599,12.681-21.032,12.681c-14.846,0-19.176-10.516-19.176-19.64c0-26.6,9.588-58.457,40.518-58.457
				c3.711,0,7.577,1.546,10.361,3.866l0.928-4.021H512.673z M459.474,452.547c0,9.278,5.104,10.979,8.97,10.979
				c3.557,0,6.959-3.402,9.897-7.732c0.154-1.546,0.464-3.247,0.928-5.104l8.66-40.981c-2.475-2.165-5.412-2.783-7.577-2.783
				C468.753,406.926,459.474,431.515,459.474,452.547z"/>
			<path fill="#FFFFFF" d="M574.376,475.435c-10.052,0-15.773-5.258-15.773-16.856c0-2.475,0.309-4.949,0.928-7.888l5.876-27.836
				c0.31-1.392,0.465-2.784,0.465-4.021c0-5.566-2.938-9.124-7.114-9.124c-3.712,0-6.495,1.083-9.743,3.248l-13.145,62.478H513.6
				l16.393-77.324h22.27l-1.855,8.352c6.34-4.64,13.454-8.352,20.259-8.352c8.505,0,17.784,8.97,17.784,19.486
				c0,1.236-0.154,2.319-0.31,3.557c-0.773,5.104-7.423,32.321-7.423,35.724c0,2.629,1.237,4.794,5.722,4.794
				c1.083,0,2.784,0,4.021-0.464C586.13,474.507,579.635,475.435,574.376,475.435z"/>
		</g>
	</g>
	<g>
		<g>
			<path fill="#FFFFFF" d="M104.196,55.79v12.056h12.716V55.79h6.908v31.416h-6.908V73.654h-12.716v13.552h-6.908V55.79H104.196z"/>
			<path fill="#FFFFFF" d="M157.876,55.79l11.748,31.416h-7.172l-2.376-6.996h-11.748l-2.464,6.996h-6.952l11.88-31.416H157.876z
				 M158.272,75.062l-3.96-11.528h-0.088l-4.092,11.528H158.272z"/>
			<path fill="#FFFFFF" d="M191.58,55.79v31.416h-6.908V55.79H191.58z"/>
			<path fill="#FFFFFF" d="M226.912,55.79c1.408,0,2.676,0.228,3.806,0.682c1.128,0.455,2.097,1.078,2.904,1.87
				c0.807,0.792,1.422,1.709,1.848,2.75c0.425,1.042,0.638,2.164,0.638,3.366c0,1.848-0.389,3.447-1.166,4.796
				c-0.777,1.35-2.046,2.376-3.806,3.08v0.088c0.85,0.235,1.554,0.594,2.112,1.078c0.557,0.484,1.012,1.056,1.364,1.716
				c0.352,0.66,0.609,1.386,0.77,2.178s0.271,1.584,0.33,2.376c0.029,0.499,0.059,1.085,0.088,1.76s0.081,1.364,0.154,2.068
				c0.073,0.704,0.19,1.372,0.352,2.002c0.161,0.631,0.403,1.166,0.726,1.606h-6.908c-0.381-0.997-0.616-2.185-0.704-3.564
				c-0.088-1.378-0.22-2.698-0.396-3.96c-0.235-1.643-0.733-2.845-1.496-3.608c-0.763-0.763-2.009-1.144-3.74-1.144h-6.908v12.276
				h-6.908V55.79H226.912z M224.448,70.002c1.584,0,2.772-0.352,3.564-1.056c0.792-0.704,1.188-1.848,1.188-3.432
				c0-1.525-0.396-2.632-1.188-3.322c-0.792-0.688-1.98-1.034-3.564-1.034h-7.568v8.844H224.448z"/>
			<path fill="#FFFFFF" d="M259.339,79.462c0.381,0.734,0.887,1.328,1.518,1.782c0.63,0.455,1.371,0.792,2.222,1.012
				c0.85,0.22,1.73,0.33,2.64,0.33c0.616,0,1.276-0.051,1.98-0.154c0.704-0.103,1.364-0.3,1.98-0.594
				c0.616-0.292,1.129-0.696,1.54-1.21c0.411-0.513,0.616-1.166,0.616-1.958c0-0.85-0.271-1.54-0.814-2.068
				c-0.543-0.528-1.254-0.968-2.134-1.32c-0.88-0.352-1.877-0.66-2.992-0.924c-1.115-0.264-2.244-0.557-3.388-0.88
				c-1.173-0.293-2.317-0.652-3.432-1.078c-1.115-0.425-2.112-0.975-2.992-1.65c-0.88-0.674-1.592-1.518-2.134-2.53
				c-0.543-1.012-0.814-2.237-0.814-3.674c0-1.613,0.345-3.014,1.034-4.202c0.689-1.188,1.591-2.178,2.706-2.97
				c1.114-0.792,2.376-1.378,3.784-1.76c1.408-0.381,2.816-0.572,4.224-0.572c1.643,0,3.219,0.184,4.73,0.55
				s2.853,0.961,4.026,1.782c1.173,0.822,2.104,1.87,2.794,3.146c0.688,1.276,1.034,2.824,1.034,4.642h-6.688
				c-0.059-0.938-0.257-1.716-0.594-2.332c-0.338-0.616-0.785-1.1-1.342-1.452c-0.558-0.352-1.195-0.601-1.914-0.748
				c-0.719-0.146-1.503-0.22-2.354-0.22c-0.557,0-1.115,0.059-1.672,0.176c-0.558,0.118-1.063,0.323-1.518,0.616
				c-0.455,0.293-0.829,0.66-1.122,1.1c-0.294,0.44-0.44,0.998-0.44,1.672c0,0.616,0.117,1.115,0.352,1.496
				c0.234,0.381,0.697,0.733,1.386,1.056c0.689,0.323,1.643,0.646,2.86,0.968c1.217,0.323,2.809,0.733,4.774,1.232
				c0.586,0.118,1.4,0.33,2.442,0.638c1.041,0.308,2.075,0.799,3.102,1.474c1.027,0.675,1.914,1.577,2.662,2.706
				c0.748,1.13,1.122,2.574,1.122,4.334c0,1.438-0.279,2.772-0.836,4.004c-0.558,1.232-1.386,2.296-2.486,3.19
				c-1.1,0.895-2.464,1.591-4.092,2.09s-3.513,0.748-5.654,0.748c-1.731,0-3.41-0.213-5.038-0.638s-3.065-1.092-4.312-2.002
				c-1.247-0.909-2.237-2.068-2.97-3.476c-0.733-1.408-1.085-3.08-1.056-5.016h6.688C258.768,77.834,258.958,78.729,259.339,79.462z
				"/>
			<path fill="#FFFFFF" d="M292.471,61.598V55.79h25.74v5.808h-9.416v25.608h-6.908V61.598H292.471z"/>
			<path fill="#FFFFFF" d="M357.239,84.808c-2.376,2.068-5.662,3.102-9.856,3.102c-4.253,0-7.546-1.026-9.878-3.08
				c-2.332-2.053-3.498-5.221-3.498-9.504V55.79h6.908v19.536c0,0.851,0.073,1.687,0.22,2.508c0.146,0.822,0.454,1.548,0.924,2.178
				c0.469,0.631,1.122,1.144,1.958,1.54s1.958,0.594,3.366,0.594c2.464,0,4.165-0.55,5.104-1.65c0.938-1.1,1.408-2.823,1.408-5.17
				V55.79h6.908v19.536C360.803,79.58,359.615,82.74,357.239,84.808z"/>
			<path fill="#FFFFFF" d="M392.614,55.79c2.024,0,3.909,0.323,5.654,0.968c1.745,0.646,3.256,1.614,4.532,2.904
				c1.276,1.291,2.273,2.904,2.992,4.84c0.718,1.936,1.078,4.209,1.078,6.82c0,2.288-0.294,4.4-0.88,6.336
				c-0.587,1.936-1.474,3.608-2.662,5.016c-1.188,1.408-2.669,2.516-4.444,3.322c-1.775,0.807-3.865,1.21-6.27,1.21h-13.552V55.79
				H392.614z M392.13,81.398c0.997,0,1.965-0.161,2.904-0.484c0.938-0.322,1.774-0.858,2.508-1.606
				c0.733-0.748,1.32-1.723,1.76-2.926c0.44-1.202,0.66-2.668,0.66-4.4c0-1.584-0.154-3.014-0.462-4.29
				c-0.308-1.276-0.814-2.368-1.518-3.278c-0.704-0.909-1.636-1.606-2.794-2.09c-1.159-0.484-2.589-0.726-4.29-0.726h-4.928v19.8
				H392.13z"/>
			<path fill="#FFFFFF" d="M430.894,55.79v31.416h-6.908V55.79H430.894z"/>
			<path fill="#FFFFFF" d="M448.979,65.096c0.704-2.009,1.716-3.762,3.036-5.258c1.319-1.496,2.94-2.669,4.862-3.52
				c1.92-0.85,4.084-1.276,6.49-1.276c2.434,0,4.604,0.426,6.512,1.276c1.906,0.851,3.52,2.024,4.84,3.52
				c1.32,1.496,2.332,3.25,3.035,5.258c0.705,2.009,1.057,4.188,1.057,6.534c0,2.288-0.352,4.422-1.057,6.402
				c-0.703,1.98-1.715,3.704-3.035,5.17c-1.32,1.467-2.934,2.618-4.84,3.454c-1.908,0.836-4.078,1.254-6.512,1.254
				c-2.406,0-4.57-0.418-6.49-1.254c-1.922-0.836-3.543-1.987-4.862-3.454c-1.32-1.466-2.332-3.19-3.036-5.17
				s-1.056-4.114-1.056-6.402C447.922,69.284,448.274,67.105,448.979,65.096z M455.293,75.48c0.308,1.247,0.799,2.369,1.474,3.366
				c0.675,0.998,1.554,1.797,2.64,2.398c1.085,0.602,2.405,0.902,3.961,0.902c1.554,0,2.873-0.3,3.959-0.902
				c1.085-0.601,1.965-1.4,2.641-2.398c0.674-0.997,1.166-2.119,1.474-3.366c0.308-1.247,0.462-2.53,0.462-3.85
				c0-1.378-0.154-2.713-0.462-4.004c-0.308-1.291-0.8-2.442-1.474-3.454c-0.676-1.012-1.556-1.818-2.641-2.42
				c-1.086-0.601-2.405-0.902-3.959-0.902c-1.556,0-2.876,0.301-3.961,0.902c-1.086,0.602-1.965,1.408-2.64,2.42
				c-0.675,1.012-1.166,2.164-1.474,3.454c-0.309,1.291-0.463,2.625-0.463,4.004C454.83,72.95,454.984,74.233,455.293,75.48z"/>
			<path fill="#FFFFFF" d="M527.21,87.206L517.046,55.79h7.084l6.996,22.088h0.088l7.084-22.088h7.128l-10.428,31.416H527.21z"/>
			<path fill="#FFFFFF" d="M574.07,55.79l11.748,31.416h-7.172l-2.377-6.996h-11.748l-2.463,6.996h-6.953l11.881-31.416H574.07z
				 M574.467,75.062l-3.961-11.528h-0.088l-4.092,11.528H574.467z"/>
			<path fill="#FFFFFF" d="M617.807,55.79c1.407,0,2.676,0.228,3.806,0.682c1.128,0.455,2.097,1.078,2.903,1.87
				s1.423,1.709,1.849,2.75c0.425,1.042,0.638,2.164,0.638,3.366c0,1.848-0.389,3.447-1.166,4.796
				c-0.777,1.35-2.046,2.376-3.806,3.08v0.088c0.851,0.235,1.554,0.594,2.112,1.078c0.557,0.484,1.012,1.056,1.363,1.716
				c0.352,0.66,0.609,1.386,0.77,2.178c0.162,0.792,0.271,1.584,0.33,2.376c0.029,0.499,0.059,1.085,0.088,1.76
				s0.081,1.364,0.154,2.068s0.191,1.372,0.353,2.002c0.161,0.631,0.403,1.166,0.726,1.606h-6.908
				c-0.381-0.997-0.615-2.185-0.703-3.564c-0.088-1.378-0.221-2.698-0.396-3.96c-0.234-1.643-0.733-2.845-1.496-3.608
				c-0.763-0.763-2.01-1.144-3.74-1.144h-6.908v12.276h-6.907V55.79H617.807z M615.342,70.002c1.584,0,2.772-0.352,3.564-1.056
				c0.792-0.704,1.188-1.848,1.188-3.432c0-1.525-0.396-2.632-1.188-3.322c-0.792-0.688-1.98-1.034-3.564-1.034h-7.568v8.844
				H615.342z"/>
			<path fill="#FFFFFF" d="M651.861,55.79v31.416h-6.908V55.79H651.861z"/>
			<path fill="#FFFFFF" d="M685.918,55.79l11.748,31.416h-7.173l-2.376-6.996h-11.748l-2.464,6.996h-6.952l11.881-31.416H685.918z
				 M686.313,75.062l-3.96-11.528h-0.088l-4.092,11.528H686.313z"/>
			<path fill="#FFFFFF" d="M706.201,61.598V55.79h25.74v5.808h-9.416v25.608h-6.908V61.598H706.201z"/>
			<path fill="#FFFFFF" d="M744.482,55.79h7.742l7.35,12.408l7.303-12.408h7.701l-11.66,19.36v12.056h-6.908V74.974L744.482,55.79z"
				/>
		</g>
		
			<line fill="none" stroke="#FFFFFF" stroke-width="3" stroke-miterlimit="10" x1="87.587" y1="104.213" x2="785.846" y2="104.213"/>
	</g>
</g>
</svg>
