<?xml version="1.0" encoding="utf-8"?>
<!-- Generator: Adobe Illustrator 16.0.0, SVG Export Plug-In . SVG Version: 6.00 Build 0)  -->
<!DOCTYPE svg PUBLIC "-//W3C//DTD SVG 1.1//EN" "http://www.w3.org/Graphics/SVG/1.1/DTD/svg11.dtd">
<svg version="1.1" id="Layer_1" xmlns="http://www.w3.org/2000/svg" xmlns:xlink="http://www.w3.org/1999/xlink" x="0px" y="0px"
	 width="96.79px" height="96.788px" viewBox="0 0 96.79 96.788" enable-background="new 0 0 96.79 96.788" xml:space="preserve">
<g>
	<defs>
		<path id="SVGID_1_" d="M70.555,48.395l23.953-23.953c1.521-1.52,2.281-3.367,2.281-5.54s-0.762-4.019-2.281-5.54L83.428,2.28
			C81.907,0.76,80.061,0,77.889,0c-2.174,0-4.02,0.76-5.541,2.28L48.395,26.233L24.442,2.28C22.922,0.76,21.075,0,18.902,0
			c-2.172,0-4.019,0.76-5.54,2.28L2.281,13.361C0.761,14.882,0,16.729,0,18.901s0.76,4.02,2.281,5.54l23.953,23.953L2.281,72.348
			C0.761,73.868,0,75.715,0,77.888s0.76,4.019,2.281,5.54l11.081,11.08c1.521,1.521,3.368,2.28,5.54,2.28
			c2.173,0,4.019-0.761,5.54-2.28l23.953-23.953l23.954,23.953c1.521,1.521,3.366,2.28,5.541,2.28c2.172,0,4.019-0.761,5.539-2.28
			l11.079-11.08c1.521-1.521,2.281-3.367,2.281-5.54s-0.761-4.02-2.281-5.54L70.555,48.395z"/>
	</defs>
	<use xlink:href="#SVGID_1_"  overflow="visible" fill-rule="evenodd" clip-rule="evenodd" fill="#FFFFFF"/>
	<clipPath id="SVGID_2_">
		<use xlink:href="#SVGID_1_"  overflow="visible"/>
	</clipPath>
	<g clip-path="url(#SVGID_2_)">
		<defs>
			<rect id="SVGID_3_" x="-0.605" y="-0.605" width="98" height="98"/>
		</defs>
		<use xlink:href="#SVGID_3_"  overflow="visible" fill="#FFFFFF"/>
		<clipPath id="SVGID_4_">
			<use xlink:href="#SVGID_3_"  overflow="visible"/>
		</clipPath>
		<rect x="-5" y="-5" clip-path="url(#SVGID_4_)" fill="#FFFFFF" width="106.79" height="106.788"/>
	</g>
</g>
</svg>
