<?xml version="1.0" encoding="utf-8"?>
<!-- Generator: Adobe Illustrator 16.0.0, SVG Export Plug-In . SVG Version: 6.00 Build 0)  -->
<!DOCTYPE svg PUBLIC "-//W3C//DTD SVG 1.1//EN" "http://www.w3.org/Graphics/SVG/1.1/DTD/svg11.dtd">
<svg version="1.1" id="Layer_2" xmlns="http://www.w3.org/2000/svg" xmlns:xlink="http://www.w3.org/1999/xlink" x="0px" y="0px"
	 width="30px" height="30px" viewBox="0 0 30 30" enable-background="new 0 0 30 30" xml:space="preserve">
<path fill-rule="evenodd" clip-rule="evenodd" fill="#FFFFFF" d="M25.527,15.43h-3.418v12.402h-5.117V15.43h-2.559v-4.277h2.559
	V8.594c0-1.836,0.43-3.223,1.289-4.16s2.278-1.406,4.258-1.406h3.418v4.277h-2.148c-0.729,0-1.194,0.127-1.396,0.381
	c-0.201,0.254-0.303,0.699-0.303,1.338v2.129h3.867L25.527,15.43z M28.35,1.65C27.25,0.55,25.925,0,24.375,0H5.625
	C4.076,0,2.75,0.55,1.65,1.65S0,4.075,0,5.625v18.75c0,1.549,0.55,2.874,1.65,3.975S4.076,30,5.625,30h18.75
	c1.55,0,2.875-0.55,3.975-1.65S30,25.924,30,24.375V5.625C30,4.075,29.449,2.75,28.35,1.65z"/>
</svg>
