<?xml version="1.0" encoding="utf-8"?>
<!-- Generator: Adobe Illustrator 16.0.0, SVG Export Plug-In . SVG Version: 6.00 Build 0)  -->
<!DOCTYPE svg PUBLIC "-//W3C//DTD SVG 1.1//EN" "http://www.w3.org/Graphics/SVG/1.1/DTD/svg11.dtd">
<svg version="1.1" id="Layer_1" xmlns="http://www.w3.org/2000/svg" xmlns:xlink="http://www.w3.org/1999/xlink" x="0px" y="0px"
	 width="125.143px" height="125.143px" viewBox="0 0 125.143 125.143" enable-background="new 0 0 125.143 125.143"
	 xml:space="preserve">
<g>
	<defs>
		<path id="SVGID_1_" d="M110.968,32.996c0,1.575-0.543,2.906-1.631,3.992c-1.086,1.087-2.416,1.63-3.991,1.63H91.169
			c-1.573,0-2.905-0.543-3.992-1.63c-1.086-1.086-1.629-2.417-1.629-3.992V19.554c0-1.521,0.543-2.838,1.629-3.952
			c1.087-1.112,2.419-1.67,3.992-1.67h14.177c1.575,0,2.905,0.558,3.991,1.67c1.088,1.114,1.631,2.432,1.631,3.952V32.996z
			 M110.968,105.753c0,1.411-0.489,2.592-1.467,3.543c-0.979,0.951-2.146,1.426-3.505,1.426H18.903
			c-1.412,0-2.594-0.475-3.544-1.426c-0.951-0.949-1.426-2.132-1.426-3.543V52.957H25.42c-1.086,3.422-1.629,6.979-1.629,10.673
			c0,10.43,3.802,19.324,11.406,26.685c7.605,7.358,16.757,11.039,27.457,11.039c7.061,0,13.579-1.685,19.555-5.052
			c5.975-3.369,10.698-7.943,14.176-13.729c3.477-5.785,5.215-12.101,5.215-18.943c0-3.693-0.545-7.25-1.631-10.673h11
			L110.968,105.753L110.968,105.753z M44.934,45.095c4.915-4.752,10.822-7.129,17.72-7.129c6.952,0,12.886,2.377,17.802,7.129
			c4.915,4.753,7.373,10.497,7.373,17.232c0,6.733-2.458,12.479-7.373,17.229c-4.916,4.753-10.849,7.13-17.802,7.13
			c-6.898,0-12.804-2.378-17.72-7.13S37.56,69.061,37.56,62.327C37.56,55.592,40.018,49.848,44.934,45.095z M120.418,4.726
			C117.268,1.575,113.492,0,109.094,0H16.051c-4.4,0-8.174,1.576-11.325,4.726C1.575,7.876,0,11.651,0,16.05v93.042
			c0,4.399,1.575,8.174,4.726,11.324c3.151,3.151,6.926,4.727,11.325,4.727h93.042c4.398,0,8.175-1.575,11.324-4.727
			c3.151-3.15,4.726-6.925,4.726-11.324V16.05C125.143,11.65,123.568,7.877,120.418,4.726z"/>
	</defs>
	<use xlink:href="#SVGID_1_"  overflow="visible" fill-rule="evenodd" clip-rule="evenodd" fill="#FFFFFF"/>
	<clipPath id="SVGID_2_">
		<use xlink:href="#SVGID_1_"  overflow="visible"/>
	</clipPath>
	<g clip-path="url(#SVGID_2_)">
		<defs>
			<rect id="SVGID_3_" x="-142.428" y="-345.429" width="1577" height="1999.999"/>
		</defs>
		<use xlink:href="#SVGID_3_"  overflow="visible" fill="#FFFFFF"/>
		<clipPath id="SVGID_4_">
			<use xlink:href="#SVGID_3_"  overflow="visible"/>
		</clipPath>
		<rect x="-5" y="-5" clip-path="url(#SVGID_4_)" fill="#FFFFFF" width="135.142" height="135.143"/>
	</g>
</g>
</svg>
