<?xml version="1.0" encoding="utf-8"?>
<!-- Generator: Adobe Illustrator 16.0.0, SVG Export Plug-In . SVG Version: 6.00 Build 0)  -->
<!DOCTYPE svg PUBLIC "-//W3C//DTD SVG 1.1//EN" "http://www.w3.org/Graphics/SVG/1.1/DTD/svg11.dtd">
<svg version="1.1" id="Layer_2" xmlns="http://www.w3.org/2000/svg" xmlns:xlink="http://www.w3.org/1999/xlink" x="0px" y="0px"
	 width="22px" height="32.566px" viewBox="0 0 22 32.566" enable-background="new 0 0 22 32.566" xml:space="preserve">
<path fill-rule="evenodd" clip-rule="evenodd" fill="#FFFFFF" d="M14.889,14.693c-1.074,1.06-2.37,1.59-3.889,1.59
	s-2.814-0.53-3.889-1.59C6.037,13.633,5.5,12.354,5.5,10.855s0.538-2.777,1.612-3.838c1.074-1.06,2.371-1.59,3.889-1.59
	c1.519,0,2.814,0.53,3.889,1.59c1.074,1.061,1.611,2.34,1.611,3.838S15.963,13.633,14.889,14.693z M18.777,3.181
	C16.629,1.06,14.037,0,11,0C7.963,0,5.371,1.061,3.223,3.181S0,7.858,0,10.855c0,1.541,0.236,2.806,0.709,3.795l7.842,16.41
	c0.215,0.467,0.548,0.834,0.999,1.103s0.935,0.403,1.451,0.403c0.515,0,0.999-0.135,1.451-0.403c0.451-0.269,0.791-0.636,1.02-1.103
	l7.82-16.41C21.764,13.661,22,12.396,22,10.855C22,7.858,20.926,5.301,18.777,3.181z"/>
</svg>
