<?xml version="1.0" encoding="utf-8"?>
<!-- Generator: Adobe Illustrator 16.0.0, SVG Export Plug-In . SVG Version: 6.00 Build 0)  -->
<!DOCTYPE svg PUBLIC "-//W3C//DTD SVG 1.1//EN" "http://www.w3.org/Graphics/SVG/1.1/DTD/svg11.dtd">
<svg version="1.1" id="Layer_2" xmlns="http://www.w3.org/2000/svg" xmlns:xlink="http://www.w3.org/1999/xlink" x="0px" y="0px"
	 width="22px" height="22.002px" viewBox="0 0 22 22.002" enable-background="new 0 0 22 22.002" xml:space="preserve">
<path fill-rule="evenodd" clip-rule="evenodd" fill="#FFFFFF" d="M21.953,17.047c-0.062-0.188-0.458-0.464-1.188-0.828
	c-0.197-0.114-0.479-0.271-0.844-0.469c-0.364-0.197-0.695-0.38-0.992-0.547c-0.297-0.166-0.575-0.328-0.836-0.484
	c-0.041-0.031-0.172-0.122-0.391-0.273c-0.219-0.15-0.403-0.263-0.555-0.336C16.998,14.037,16.85,14,16.703,14
	c-0.208,0-0.469,0.148-0.781,0.445s-0.599,0.62-0.859,0.969c-0.26,0.35-0.535,0.672-0.827,0.969
	c-0.292,0.298-0.532,0.445-0.72,0.445c-0.094,0-0.211-0.025-0.352-0.077c-0.14-0.052-0.246-0.097-0.32-0.133
	c-0.072-0.037-0.197-0.109-0.375-0.219c-0.177-0.109-0.275-0.17-0.297-0.181c-1.427-0.791-2.65-1.698-3.671-2.719
	s-1.927-2.245-2.719-3.672c-0.011-0.021-0.07-0.12-0.18-0.297c-0.11-0.177-0.183-0.302-0.219-0.375
	c-0.036-0.073-0.081-0.18-0.132-0.32C5.198,8.695,5.172,8.578,5.172,8.484c0-0.188,0.148-0.427,0.445-0.719s0.62-0.567,0.969-0.828
	s0.672-0.547,0.969-0.859S8,5.506,8,5.297c0-0.146-0.037-0.294-0.109-0.445S7.706,4.516,7.555,4.297
	C7.404,4.078,7.313,3.948,7.282,3.906C7.125,3.646,6.964,3.367,6.797,3.07S6.448,2.442,6.25,2.078
	C6.052,1.714,5.896,1.433,5.782,1.234C5.417,0.505,5.141,0.109,4.954,0.047C4.88,0.016,4.771,0,4.625,0
	C4.344,0,3.977,0.052,3.523,0.156C3.07,0.261,2.714,0.37,2.453,0.484C1.932,0.703,1.38,1.339,0.797,2.391
	C0.266,3.369,0,4.339,0,5.297c0,0.281,0.018,0.555,0.055,0.82S0.156,6.683,0.25,7.016s0.169,0.581,0.227,0.742
	s0.164,0.45,0.32,0.867s0.25,0.672,0.281,0.766c0.365,1.021,0.797,1.933,1.297,2.734c0.823,1.334,1.945,2.712,3.367,4.134
	s2.799,2.544,4.133,3.367c0.802,0.5,1.714,0.933,2.734,1.297c0.094,0.031,0.35,0.125,0.766,0.281
	c0.417,0.156,0.706,0.264,0.867,0.32c0.162,0.058,0.409,0.133,0.742,0.227c0.334,0.094,0.633,0.159,0.898,0.196
	c0.266,0.036,0.539,0.055,0.82,0.055c0.959,0,1.928-0.267,2.906-0.797c1.053-0.584,1.688-1.136,1.906-1.657
	c0.115-0.26,0.225-0.617,0.328-1.07C21.949,18.024,22,17.658,22,17.376C22,17.23,21.984,17.121,21.953,17.047z"/>
</svg>
